<?xml version="1.0" standalone="no"?>
<!DOCTYPE svg PUBLIC "-//W3C//DTD SVG 20010904//EN"
 "http://www.w3.org/TR/2001/REC-SVG-20010904/DTD/svg10.dtd">
<svg version="1.0" xmlns="http://www.w3.org/2000/svg"
 width="7677.000000pt" height="7677.000000pt" viewBox="0 0 7677.000000 7677.000000"
 preserveAspectRatio="xMidYMid meet">

<g transform="translate(0.000000,7677.000000) scale(0.100000,-0.100000)"
fill="navy" stroke="none">
<path d="M53880 68884 c-19 -2 -91 -9 -160 -15 -822 -73 -1656 -397 -2335
-908 -349 -262 -684 -597 -941 -941 -350 -468 -610 -998 -765 -1559 -47 -172
-103 -444 -120 -588 l-13 -103 -2225 -2 -2226 -3 -66 -22 c-182 -62 -326 -221
-365 -402 -12 -56 -14 -701 -14 -4279 l0 -4212 -2202 2 -2203 3 -5 3545 c-6
3929 0 3597 -71 4020 -110 655 -366 1306 -737 1875 -357 547 -835 1033 -1382
1404 -672 456 -1408 727 -2240 827 -181 22 -721 30 -917 15 -1208 -97 -2300
-598 -3148 -1446 -734 -734 -1220 -1673 -1389 -2683 -47 -276 -58 -406 -63
-725 -5 -280 -7 -308 -22 -301 -407 170 -831 270 -1291 305 -173 13 -622 7
-785 -11 -626 -67 -1130 -209 -1650 -465 -811 -399 -1437 -1006 -1819 -1765
-233 -461 -354 -911 -388 -1442 l-12 -186 -50 20 c-350 138 -806 247 -1236
294 -198 21 -691 29 -910 15 -1094 -73 -2021 -410 -2848 -1036 -190 -144 -301
-240 -486 -423 -694 -686 -1151 -1534 -1330 -2467 -60 -313 -70 -440 -71 -845
0 -303 3 -403 18 -520 69 -548 221 -1050 462 -1523 l73 -144 -181 -7 c-609
-23 -1136 -157 -1642 -417 -1060 -544 -1817 -1559 -2024 -2714 -48 -267 -56
-375 -55 -725 0 -360 13 -536 60 -823 122 -743 398 -1386 822 -1911 35 -43 62
-79 60 -80 -2 -1 -48 -15 -103 -31 -431 -122 -881 -357 -1250 -651 -150 -120
-431 -402 -551 -554 -421 -532 -671 -1124 -761 -1800 -22 -171 -25 -675 -5
-845 102 -835 454 -1561 1038 -2141 123 -122 330 -298 424 -360 22 -15 40 -30
40 -33 0 -3 -71 -42 -158 -85 -910 -453 -1616 -1096 -2072 -1886 -428 -743
-640 -1642 -617 -2610 19 -739 173 -1381 486 -2025 120 -247 192 -372 337
-590 464 -697 1098 -1264 1844 -1649 431 -222 920 -387 1380 -466 74 -13 137
-25 139 -26 2 -2 -45 -64 -105 -139 -481 -603 -753 -1235 -840 -1955 -22 -179
-25 -627 -5 -800 86 -759 371 -1436 847 -2010 117 -141 363 -385 502 -498 582
-472 1242 -748 1984 -828 176 -19 568 -22 718 -5 52 5 95 9 97 7 2 -1 -19 -70
-46 -152 -130 -393 -176 -697 -175 -1139 0 -230 4 -309 22 -445 53 -395 177
-801 347 -1140 292 -582 762 -1100 1307 -1440 123 -76 407 -223 533 -276 674
-278 1428 -342 2159 -183 76 17 145 33 154 36 12 5 14 0 8 -28 -48 -262 -71
-881 -42 -1155 35 -325 143 -743 291 -1119 58 -148 210 -463 294 -610 349
-608 847 -1141 1433 -1533 883 -591 1936 -892 3123 -892 906 0 1765 178 2578
534 71 31 130 56 131 56 2 0 6 -78 9 -172 18 -511 134 -1052 334 -1563 106
-272 314 -669 482 -920 299 -446 717 -887 1144 -1205 733 -545 1560 -865 2474
-956 348 -35 840 -20 1204 36 1390 213 2648 1037 3403 2229 274 433 464 870
602 1384 26 94 53 194 60 221 11 41 16 330 24 1525 5 812 10 1967 10 2566 0
600 3 1681 7 2402 l6 1313 2524 0 2523 0 2 -4242 3 -4243 26 -66 c51 -132 148
-239 274 -302 111 -55 -42 -51 2360 -57 l2230 -5 3 -30 c10 -103 69 -421 106
-567 84 -329 183 -597 337 -908 247 -501 539 -904 935 -1290 751 -733 1714
-1185 2769 -1302 163 -18 807 -18 970 0 1433 159 2688 939 3461 2152 797 1250
943 2825 393 4220 -70 178 -264 562 -366 725 -368 589 -829 1063 -1398 1440
-628 417 -1299 660 -2070 752 -117 14 -227 17 -505 17 -278 0 -388 -3 -505
-17 -502 -60 -944 -179 -1381 -372 -758 -336 -1421 -876 -1908 -1555 -432
-602 -720 -1314 -825 -2041 l-17 -124 -1907 -3 -1907 -2 0 4229 c0 4175 0
4230 -20 4292 -52 169 -173 296 -344 358 l-71 26 -2847 3 -2848 2 0 2178 c0
1197 3 2376 7 2620 l6 442 8130 -2 8131 -3 23 -148 c113 -734 421 -1454 886
-2071 135 -179 254 -314 431 -491 1151 -1148 2804 -1611 4391 -1230 1050 252
2002 884 2650 1760 532 719 840 1551 906 2452 15 200 6 649 -16 838 -107 920
-452 1734 -1042 2460 -123 151 -451 482 -603 607 -706 583 -1527 942 -2410
1052 -461 58 -975 44 -1425 -39 -797 -145 -1541 -496 -2170 -1024 -128 -107
-379 -355 -506 -499 -485 -552 -846 -1244 -1019 -1955 -34 -140 -86 -425 -105
-580 l-6 -47 -8125 0 -8124 0 0 6820 0 6820 1730 0 1730 0 0 -2373 c0 -1650 3
-2391 11 -2433 35 -194 199 -368 394 -420 41 -11 551 -14 2862 -14 l2811 0 6
-27 c2 -16 8 -64 11 -108 4 -44 15 -141 26 -215 187 -1298 932 -2475 2029
-3207 642 -428 1333 -676 2125 -763 160 -18 611 -24 785 -11 1149 86 2173 553
2980 1361 1024 1024 1513 2453 1330 3889 -69 538 -211 1003 -455 1491 -665
1332 -1933 2274 -3390 2519 -274 46 -484 63 -780 63 -272 0 -411 -9 -658 -43
-1310 -178 -2510 -938 -3249 -2060 -327 -495 -570 -1088 -678 -1654 -11 -60
-23 -120 -26 -132 l-4 -23 -2525 0 -2525 0 0 2398 c0 1617 -4 2412 -11 2442
-38 166 -186 324 -358 383 l-66 22 -2053 3 -2052 2 2 2698 3 2697 7808 3
c4294 1 7807 -1 7807 -5 0 -33 56 -380 75 -470 126 -582 349 -1115 670 -1603
630 -957 1599 -1655 2705 -1949 406 -108 718 -146 1195 -146 410 0 584 16 933
86 1189 237 2269 964 2949 1984 454 681 711 1430 774 2255 23 302 2 775 -47
1080 -154 962 -614 1860 -1309 2555 -691 691 -1575 1148 -2525 1304 -299 49
-396 56 -775 56 -379 0 -476 -7 -775 -56 -1171 -193 -2231 -838 -2954 -1799
-181 -240 -299 -430 -435 -700 -225 -445 -357 -846 -440 -1340 l-28 -165
-7814 0 -7814 0 -3 2618 -2 2617 2502 0 c2136 0 2513 2 2571 15 188 40 364
211 406 395 7 31 11 1407 11 4273 l0 4227 1907 -2 1907 -3 18 -123 c190 -1354
1002 -2585 2180 -3308 585 -359 1212 -575 1918 -661 209 -26 832 -26 1040 0
350 43 646 108 955 212 1635 545 2847 1959 3129 3650 49 288 60 437 60 780 0
351 -12 494 -64 799 -235 1366 -1074 2560 -2290 3257 -586 336 -1222 534
-1908 594 -148 13 -595 19 -702 9z m742 -1103 c853 -111 1606 -499 2188 -1126
723 -780 1066 -1855 924 -2899 -153 -1130 -820 -2108 -1819 -2666 -406 -228
-856 -371 -1350 -432 -168 -20 -635 -17 -805 5 -287 38 -581 110 -834 203
-293 109 -686 329 -941 529 -746 583 -1215 1392 -1356 2345 -26 174 -37 602
-20 787 66 719 328 1374 777 1938 119 150 411 440 567 563 562 446 1233 711
1956 772 168 14 533 4 713 -19z m-18912 -1336 c1044 -130 1944 -633 2608
-1458 40 -50 125 -168 187 -262 386 -582 597 -1210 645 -1920 11 -171 14
-27785 3 -31113 -5 -1698 -8 -2012 -20 -2012 -32 0 -467 96 -703 155 -855 214
-1644 500 -2395 870 -221 109 -480 247 -499 265 -5 5 33 61 91 132 201 248
382 509 543 783 113 193 324 624 409 837 456 1140 598 2387 426 3745 -114 899
-374 1850 -770 2823 -89 220 -119 274 -190 345 -105 105 -228 155 -379 155
-167 -1 -270 -42 -382 -154 -81 -81 -128 -164 -150 -265 -31 -147 -19 -208 91
-481 713 -1762 924 -3333 639 -4760 -184 -925 -583 -1765 -1158 -2438 -53 -61
-102 -112 -109 -112 -17 0 -286 210 -468 366 -867 742 -1525 1626 -1939 2604
-88 207 -117 257 -196 330 -105 96 -218 140 -364 140 -150 0 -261 -44 -371
-148 -110 -103 -169 -240 -169 -392 0 -102 16 -157 105 -367 631 -1479 1691
-2730 3125 -3688 630 -421 1314 -779 2072 -1083 797 -320 1726 -588 2538 -732
96 -17 186 -33 199 -36 l24 -5 -7 -6287 c-4 -3458 -11 -6885 -16 -7617 l-8
-1330 -40 -155 c-172 -662 -490 -1228 -962 -1714 -618 -636 -1392 -1022 -2290
-1143 -169 -22 -694 -26 -860 -5 -640 79 -1197 282 -1700 618 -849 566 -1435
1437 -1635 2428 -59 295 -70 413 -69 756 1 323 1 325 69 775 87 580 312 1100
695 1610 819 1088 2203 1822 4095 2170 208 38 250 49 312 81 120 61 219 173
264 299 30 84 37 229 14 315 -62 239 -281 410 -525 410 -80 0 -490 -76 -840
-156 -2381 -546 -4064 -1778 -4794 -3512 -96 -228 -150 -397 -237 -734 -9 -35
-17 -40 -218 -147 -333 -177 -571 -284 -857 -386 -854 -304 -1815 -382 -2701
-220 -1329 244 -2377 1035 -2874 2170 -107 244 -208 574 -256 835 -22 119 -24
532 -5 720 41 379 121 795 242 1239 11 41 20 90 20 108 0 75 179 463 331 718
435 728 1079 1295 1854 1630 185 80 227 105 290 169 105 107 155 231 155 381
0 153 -51 277 -160 385 -77 77 -166 124 -278 147 -163 34 -314 -12 -727 -222
-877 -446 -1562 -1086 -2072 -1938 -109 -181 -274 -517 -357 -722 -64 -159
-65 -160 -113 -189 -189 -113 -521 -223 -818 -273 -156 -25 -563 -25 -720 0
-545 90 -1000 316 -1379 686 -224 220 -371 421 -501 686 -154 314 -230 595
-256 950 -36 496 104 1046 375 1473 82 130 152 222 264 351 135 154 182 260
182 411 0 126 -28 206 -124 354 -114 176 -253 265 -438 281 -109 10 -198 -13
-353 -89 -271 -134 -521 -213 -822 -261 -154 -25 -490 -31 -656 -11 -503 58
-957 242 -1347 544 -117 91 -335 306 -433 427 -414 513 -627 1173 -586 1814
36 569 244 1082 639 1576 274 342 780 779 1054 910 310 148 655 259 976 314
365 63 766 52 1076 -28 443 -114 835 -366 1126 -724 168 -208 251 -270 403
-302 87 -18 142 -19 226 -1 134 29 258 112 332 223 113 170 127 376 37 553
-69 137 -393 497 -606 672 -328 270 -714 478 -1100 592 -869 258 -1902 159
-2839 -271 -116 -53 -156 -66 -235 -78 -502 -74 -1065 -31 -1572 121 -1284
384 -2275 1406 -2618 2699 -211 796 -152 1751 155 2514 291 723 833 1328 1575
1756 422 244 936 439 1470 560 201 45 297 91 391 184 104 104 149 219 149 379
0 168 -75 319 -208 421 -79 61 -144 88 -259 110 -535 103 -970 328 -1334 691
-331 330 -552 720 -663 1170 -54 221 -70 353 -70 595 -1 221 9 320 51 520 187
901 869 1632 1763 1890 276 80 616 113 882 86 116 -12 127 -15 198 -56 854
-486 1884 -644 3000 -459 630 104 1272 314 1957 638 209 99 508 255 571 298
178 123 267 354 217 567 -80 336 -463 518 -765 363 -527 -271 -619 -314 -925
-437 -568 -228 -1106 -363 -1622 -406 -206 -17 -648 -7 -823 20 -554 82 -1032
280 -1360 560 -47 41 -112 86 -145 102 -132 63 -449 349 -609 549 -240 301
-436 703 -536 1099 -109 435 -145 945 -94 1340 78 604 352 1160 784 1591 446
444 1005 713 1636 786 189 22 538 15 710 -15 244 -42 420 -92 654 -189 130
-53 139 -55 246 -60 85 -3 124 0 170 13 144 41 258 134 347 282 74 124 91 179
91 308 1 201 -33 264 -279 509 -99 100 -226 238 -282 308 -399 499 -639 1064
-730 1718 -24 175 -24 641 0 825 87 650 338 1254 732 1760 630 809 1549 1335
2590 1484 731 104 1439 40 2040 -186 282 -106 597 -288 775 -448 78 -70 218
-155 256 -155 28 0 239 -259 383 -470 309 -454 540 -969 670 -1498 109 -443
149 -893 121 -1385 -14 -267 -10 -308 48 -427 94 -193 317 -317 532 -295 227
23 418 183 474 397 40 154 47 895 12 1218 -139 1263 -682 2422 -1564 3341
l-83 87 -19 98 c-46 241 -57 566 -26 809 73 574 321 1091 724 1507 253 260
505 445 830 608 383 191 803 313 1262 365 810 91 1563 -90 2120 -511 52 -40
108 -85 123 -102 16 -16 55 -90 86 -163 191 -441 464 -870 796 -1249 134 -152
360 -369 515 -493 581 -466 1199 -724 1915 -798 250 -26 679 -13 920 27 272
45 458 262 458 534 0 183 -83 343 -231 444 -132 90 -240 109 -479 82 -932
-105 -1760 259 -2390 1051 -219 275 -480 721 -497 849 -3 27 -26 117 -51 200
-121 401 -173 791 -162 1209 15 587 149 1122 411 1645 552 1103 1618 1892
2828 2094 124 21 201 31 403 50 93 9 577 -4 695 -19z m25220 -13950 c815 -104
1529 -453 2105 -1030 301 -300 544 -644 715 -1009 447 -958 451 -2043 12
-3014 -236 -520 -631 -1011 -1098 -1364 -1222 -925 -2891 -970 -4159 -114
-188 127 -356 267 -530 441 -588 587 -940 1320 -1037 2155 -19 169 -16 629 6
795 61 465 197 893 409 1285 81 149 252 406 363 545 110 138 397 425 529 531
598 477 1238 729 2025 798 103 9 541 -3 660 -19z m-6160 -11880 c1180 -114
2206 -782 2796 -1819 217 -381 367 -838 431 -1306 25 -190 26 -708 0 -890 -96
-679 -344 -1263 -761 -1790 -117 -148 -400 -433 -542 -546 -512 -409 -1077
-660 -1707 -758 -925 -145 -1860 78 -2632 627 -300 214 -618 533 -842 847
-567 793 -782 1813 -587 2776 285 1406 1397 2519 2802 2803 133 27 335 56 452
64 125 9 462 5 590 -8z m6585 -9205 c1273 -86 2391 -820 2969 -1950 197 -385
319 -786 373 -1230 23 -193 23 -609 0 -795 -59 -475 -196 -909 -410 -1304
-242 -450 -606 -867 -1026 -1180 -501 -372 -1080 -600 -1731 -683 -164 -20
-661 -18 -830 5 -593 79 -1107 275 -1595 608 -325 221 -670 563 -900 890 -344
490 -549 1021 -632 1639 -22 167 -25 637 -5 800 93 751 357 1365 831 1935 173
208 463 472 701 636 654 454 1472 681 2255 629z m-6140 -15305 c677 -80 1292
-336 1835 -766 136 -107 442 -413 554 -554 364 -457 613 -992 725 -1560 80
-407 84 -897 10 -1306 -250 -1391 -1294 -2509 -2664 -2853 -299 -75 -522 -101
-865 -101 -351 0 -566 26 -885 106 -1344 339 -2387 1455 -2640 2826 -57 309
-73 711 -41 1014 73 679 319 1285 746 1841 115 149 433 471 580 588 596 470
1264 728 2030 784 109 8 488 -4 615 -19z"/>
<path d="M32000 54239 c-30 -5 -91 -27 -136 -49 -134 -66 -251 -210 -283 -350
-13 -58 -13 -212 0 -270 27 -118 124 -251 233 -322 94 -60 166 -78 361 -89
804 -43 1639 -259 2350 -609 385 -189 696 -390 1003 -648 95 -80 112 -98 106
-116 -14 -45 -123 -266 -183 -371 -347 -608 -832 -1090 -1424 -1418 -298 -164
-659 -298 -1016 -376 -170 -38 -227 -59 -306 -116 -149 -106 -238 -303 -220
-485 23 -225 171 -406 388 -472 127 -38 316 -14 676 88 1108 312 2012 967
2645 1919 63 94 135 207 161 253 27 46 52 79 56 75 41 -42 274 -491 343 -663
172 -427 276 -815 356 -1325 26 -171 33 -198 69 -271 70 -141 210 -251 363
-284 81 -18 238 -8 310 19 96 37 195 115 253 201 119 175 122 305 20 845 -271
1431 -967 2601 -2045 3436 -802 621 -1816 1062 -2940 1279 -450 87 -992 144
-1140 119z"/>
<path d="M25635 48468 c-89 -16 -194 -75 -266 -147 -107 -107 -159 -233 -159
-386 0 -149 53 -277 157 -381 92 -92 169 -126 376 -169 665 -136 1392 -429
1960 -789 316 -200 545 -384 813 -651 204 -204 340 -364 475 -560 399 -578
625 -1233 690 -2000 14 -168 14 -598 -1 -790 -6 -82 -20 -225 -30 -317 -16
-132 -18 -181 -10 -237 30 -209 166 -372 370 -442 90 -30 238 -30 331 0 160
51 293 183 348 344 19 55 47 252 73 522 18 178 17 915 0 1095 -105 1073 -457
1948 -1101 2735 -208 254 -571 606 -848 822 -727 566 -1668 1024 -2616 1273
-324 85 -441 101 -562 78z"/>
<path d="M32225 45930 c-56 -4 -126 -17 -158 -28 -147 -52 -263 -165 -324
-315 -31 -75 -42 -229 -23 -320 27 -134 131 -276 251 -344 115 -66 118 -66
539 -74 399 -7 516 -17 800 -65 1090 -184 2027 -795 2644 -1724 118 -177 192
-307 267 -465 126 -269 128 -273 190 -335 126 -125 312 -182 484 -147 235 49
405 228 433 459 20 158 -12 263 -167 563 -246 474 -546 886 -931 1279 -874
891 -1936 1388 -3210 1501 -199 18 -656 27 -795 15z"/>
<path d="M22730 40209 c-1352 -107 -2618 -605 -3806 -1498 -388 -291 -667
-533 -1019 -886 -333 -332 -573 -605 -807 -915 -112 -148 -159 -231 -177 -310
-15 -67 -13 -208 4 -275 37 -142 144 -273 276 -338 92 -45 142 -56 244 -57
139 0 264 46 361 133 28 25 95 107 150 183 230 318 448 570 778 899 398 398
749 687 1176 970 601 399 1211 677 1858 849 l92 25 46 -65 c152 -212 371 -628
487 -924 367 -933 431 -1884 192 -2841 -49 -194 -105 -370 -180 -570 -79 -207
-94 -286 -77 -396 34 -226 210 -411 430 -454 82 -16 211 -7 287 20 120 42 242
147 297 255 35 69 124 306 188 501 322 990 375 2004 154 2995 -114 513 -328
1078 -582 1539 -29 52 -50 96 -47 99 10 10 534 -18 704 -38 687 -79 1373 -279
2101 -613 102 -47 203 -90 225 -96 60 -16 223 -14 286 5 216 63 372 257 386
481 11 165 -42 308 -156 423 -58 57 -87 77 -206 134 -843 411 -1699 660 -2585
752 -182 19 -897 28 -1080 13z"/>
<path d="M27853 35585 c-175 -47 -322 -187 -373 -354 -13 -41 -24 -118 -30
-212 -40 -587 -189 -1064 -463 -1474 -136 -205 -371 -453 -570 -603 -461 -347
-1086 -579 -1707 -632 -170 -15 -205 -22 -288 -64 -128 -64 -222 -172 -270
-310 -33 -94 -35 -239 -3 -337 58 -181 218 -326 405 -366 178 -38 723 35 1129
152 710 204 1333 566 1805 1049 627 642 974 1469 1042 2488 11 172 4 251 -31
340 -61 156 -201 280 -364 323 -73 19 -212 18 -282 0z"/>
<path d="M28231 28805 c-179 -51 -323 -196 -376 -378 -24 -82 -22 -224 4 -308
43 -137 144 -254 276 -320 94 -47 135 -54 410 -69 313 -17 630 -59 985 -130
1122 -226 2120 -685 2893 -1328 60 -50 131 -112 159 -138 l50 -47 -28 -71
c-41 -106 -214 -446 -287 -568 -345 -569 -769 -1021 -1292 -1377 -463 -315
-986 -535 -1580 -666 -188 -41 -275 -79 -357 -153 -279 -256 -215 -720 122
-884 142 -69 249 -73 495 -19 1428 318 2583 1100 3380 2286 90 135 213 337
280 463 22 39 42 72 46 72 9 0 111 -162 196 -310 266 -462 482 -1035 617
-1631 38 -168 97 -488 116 -634 22 -173 75 -283 182 -380 60 -55 157 -108 228
-124 81 -19 227 -13 301 12 148 51 250 140 319 280 68 140 69 207 14 567 -278
1811 -1124 3279 -2479 4300 -1102 831 -2552 1376 -4110 1545 -217 24 -498 29
-564 10z"/>
</g>
</svg>
